/* XPM */
static char * title_inactive_xpm[] = {
"4 8 3 1",
" 	c None",
"#	c #C0C0C0 s inactive_color_2",
"@	c #C0C0FF s inactive_color_1",
"@@@@",
"@@@@",
"####",
"####",
"####",
"####",
"####",
"####"};
